<mxfile host="Electron" agent="Mozilla/5.0 (Macintosh; Intel Mac OS X 10_15_7) AppleWebKit/537.36 (KHTML, like Gecko) draw.io/26.2.15 Chrome/134.0.6998.205 Electron/35.2.1 Safari/537.36" version="26.2.15" pages="2">
  <diagram name="Network Model" id="85v3LE0Wc4XGSMueLxnV">
    <mxGraphModel dx="3350" dy="1457" grid="1" gridSize="10" guides="1" tooltips="1" connect="1" arrows="1" fold="1" page="1" pageScale="1" pageWidth="850" pageHeight="1100" math="0" shadow="0">
      <root>
        <mxCell id="0" />
        <mxCell id="1" parent="0" />
        <mxCell id="PqrCPJ23p8rGgWnf3vIa-11" style="rounded=0;orthogonalLoop=1;jettySize=auto;html=1;" edge="1" parent="1" source="PqrCPJ23p8rGgWnf3vIa-1" target="PqrCPJ23p8rGgWnf3vIa-6">
          <mxGeometry relative="1" as="geometry" />
        </mxCell>
        <mxCell id="PqrCPJ23p8rGgWnf3vIa-1" value="&lt;ul style=&quot;box-sizing: border-box; margin-top: 0px; margin-bottom: 1rem; max-width: 80%; color: rgb(34, 34, 34); font-family: &amp;quot;open sans&amp;quot;, -apple-system, &amp;quot;system-ui&amp;quot;, &amp;quot;segoe ui&amp;quot;, Roboto, &amp;quot;helvetica neue&amp;quot;, Arial, sans-serif, &amp;quot;apple color emoji&amp;quot;, &amp;quot;segoe ui emoji&amp;quot;, &amp;quot;segoe ui symbol&amp;quot;; font-size: 16px;&quot;&gt;&lt;li style=&quot;box-sizing: border-box; margin-bottom: 0.25rem;&quot;&gt;&lt;p style=&quot;box-sizing: border-box; margin-top: 0px; margin-bottom: 1rem;&quot;&gt;&lt;span&gt;Each&amp;nbsp;&lt;a style=&quot;box-sizing: border-box; color: rgb(50, 108, 229); text-decoration-line: none;&quot; href=&quot;https://kubernetes.io/docs/concepts/workloads/pods/&quot;&gt;pod&lt;/a&gt;&amp;nbsp;in a cluster gets its own unique cluster-wide IP address.&lt;/span&gt;&lt;/p&gt;&lt;ul style=&quot;box-sizing: border-box; margin-top: 0px; margin-bottom: 0px;&quot;&gt;&lt;li style=&quot;box-sizing: border-box; margin-bottom: 0.25rem;&quot;&gt;&lt;span&gt;A pod has its own private network namespace which is shared by all of the containers within the pod. Processes running in different containers in the same pod can communicate with each other over&amp;nbsp;&lt;code style=&quot;box-sizing: border-box; font-family: SFMono-Regular, Menlo, Monaco, Consolas, &amp;quot;liberation mono&amp;quot;, &amp;quot;courier new&amp;quot;, monospace; font-size: 13.6px; color: inherit; overflow-wrap: break-word; padding: 0.2em 0.4em; margin: 0px; word-break: normal; border-radius: 0.25rem; background-color: rgba(0, 0, 0, 0.05);&quot;&gt;localhost&lt;/code&gt;.&lt;/span&gt;&lt;/li&gt;&lt;/ul&gt;&lt;/li&gt;&lt;/ul&gt;" style="text;html=1;whiteSpace=wrap;overflow=hidden;rounded=0;align=left;fillColor=#fff2cc;strokeColor=#d6b656;" vertex="1" parent="1">
          <mxGeometry x="-820" y="40" width="800" height="120" as="geometry" />
        </mxCell>
        <mxCell id="PqrCPJ23p8rGgWnf3vIa-12" style="rounded=0;orthogonalLoop=1;jettySize=auto;html=1;" edge="1" parent="1" source="PqrCPJ23p8rGgWnf3vIa-2" target="PqrCPJ23p8rGgWnf3vIa-7">
          <mxGeometry relative="1" as="geometry" />
        </mxCell>
        <mxCell id="PqrCPJ23p8rGgWnf3vIa-2" value="&lt;ul style=&quot;box-sizing: border-box; margin-top: 0px; margin-bottom: 1rem; max-width: 80%; color: rgb(34, 34, 34); font-family: &amp;quot;open sans&amp;quot;, -apple-system, &amp;quot;system-ui&amp;quot;, &amp;quot;segoe ui&amp;quot;, Roboto, &amp;quot;helvetica neue&amp;quot;, Arial, sans-serif, &amp;quot;apple color emoji&amp;quot;, &amp;quot;segoe ui emoji&amp;quot;, &amp;quot;segoe ui symbol&amp;quot;; font-size: 16px;&quot;&gt;&lt;li style=&quot;box-sizing: border-box; margin-bottom: 0.25rem;&quot;&gt;&lt;p style=&quot;box-sizing: border-box; margin-top: 0px; margin-bottom: 1rem;&quot;&gt;&lt;span&gt;The&amp;nbsp;&lt;em style=&quot;box-sizing: border-box;&quot;&gt;pod network&lt;/em&gt;&amp;nbsp;(also called a cluster network) handles communication between pods. It ensures that (barring intentional network segmentation):&lt;/span&gt;&lt;/p&gt;&lt;ul style=&quot;box-sizing: border-box; margin-top: 0px; margin-bottom: 0px;&quot;&gt;&lt;li style=&quot;box-sizing: border-box; margin-bottom: 0.25rem;&quot;&gt;&lt;p style=&quot;box-sizing: border-box; margin-top: 0px; margin-bottom: 1rem;&quot;&gt;&lt;span&gt;All pods can communicate with all other pods, whether they are on the same&amp;nbsp;&lt;a href=&quot;https://kubernetes.io/docs/concepts/architecture/nodes/&quot; style=&quot;box-sizing: border-box; color: rgb(50, 108, 229); text-decoration-line: none;&quot;&gt;node&lt;/a&gt;&amp;nbsp;or on different nodes. Pods can communicate with each other directly, without the use of proxies or address translation (NAT).&lt;/span&gt;&lt;/p&gt;&lt;p style=&quot;box-sizing: border-box; margin-top: 0px; margin-bottom: 1rem;&quot;&gt;&lt;span&gt;On Windows, this rule does not apply to host-network pods.&lt;/span&gt;&lt;/p&gt;&lt;/li&gt;&lt;li style=&quot;box-sizing: border-box; margin-bottom: 0.25rem;&quot;&gt;&lt;p style=&quot;box-sizing: border-box; margin-top: 0px; margin-bottom: 1rem;&quot;&gt;&lt;span&gt;Agents on a node (such as system daemons, or kubelet) can communicate with all pods on that node.&lt;/span&gt;&lt;/p&gt;&lt;/li&gt;&lt;/ul&gt;&lt;/li&gt;&lt;/ul&gt;" style="text;html=1;align=left;verticalAlign=top;rounded=0;whiteSpace=wrap;fillColor=#fff2cc;strokeColor=#d6b656;" vertex="1" parent="1">
          <mxGeometry x="-820" y="280" width="800" height="250" as="geometry" />
        </mxCell>
        <mxCell id="PqrCPJ23p8rGgWnf3vIa-13" style="rounded=0;orthogonalLoop=1;jettySize=auto;html=1;" edge="1" parent="1" source="PqrCPJ23p8rGgWnf3vIa-3" target="PqrCPJ23p8rGgWnf3vIa-8">
          <mxGeometry relative="1" as="geometry" />
        </mxCell>
        <mxCell id="PqrCPJ23p8rGgWnf3vIa-3" value="&lt;ul style=&quot;box-sizing: border-box; margin-top: 0px; margin-bottom: 1rem; max-width: 80%; color: rgb(34, 34, 34); font-family: &amp;quot;open sans&amp;quot;, -apple-system, &amp;quot;system-ui&amp;quot;, &amp;quot;segoe ui&amp;quot;, Roboto, &amp;quot;helvetica neue&amp;quot;, Arial, sans-serif, &amp;quot;apple color emoji&amp;quot;, &amp;quot;segoe ui emoji&amp;quot;, &amp;quot;segoe ui symbol&amp;quot;; font-size: 16px;&quot;&gt;&lt;li style=&quot;box-sizing: border-box; margin-bottom: 0.25rem;&quot;&gt;&lt;p style=&quot;box-sizing: border-box; margin-top: 0px; margin-bottom: 1rem;&quot;&gt;&lt;span&gt;The&amp;nbsp;&lt;a href=&quot;https://kubernetes.io/docs/concepts/services-networking/service/&quot; style=&quot;box-sizing: border-box; color: rgb(50, 108, 229); text-decoration-line: none;&quot;&gt;Service&lt;/a&gt;&amp;nbsp;API lets you provide a stable (long lived) IP address or hostname for a service implemented by one or more backend pods, where the individual pods making up the service can change over time.&lt;/span&gt;&lt;/p&gt;&lt;ul style=&quot;box-sizing: border-box; margin-top: 0px; margin-bottom: 0px;&quot;&gt;&lt;li style=&quot;box-sizing: border-box; margin-bottom: 0.25rem;&quot;&gt;&lt;p style=&quot;box-sizing: border-box; margin-top: 0px; margin-bottom: 1rem;&quot;&gt;&lt;span&gt;Kubernetes automatically manages&amp;nbsp;&lt;a href=&quot;https://kubernetes.io/docs/concepts/services-networking/endpoint-slices/&quot; style=&quot;box-sizing: border-box; color: rgb(50, 108, 229); text-decoration-line: none;&quot;&gt;EndpointSlice&lt;/a&gt;&amp;nbsp;objects to provide information about the pods currently backing a Service.&lt;/span&gt;&lt;/p&gt;&lt;/li&gt;&lt;li style=&quot;box-sizing: border-box; margin-bottom: 0.25rem;&quot;&gt;&lt;p style=&quot;box-sizing: border-box; margin-top: 0px; margin-bottom: 1rem;&quot;&gt;&lt;span&gt;A service proxy implementation monitors the set of Service and EndpointSlice objects, and programs the data plane to route service traffic to its backends, by using operating system or cloud provider APIs to intercept or rewrite packets.&lt;/span&gt;&lt;/p&gt;&lt;/li&gt;&lt;/ul&gt;&lt;/li&gt;&lt;/ul&gt;" style="text;html=1;align=left;verticalAlign=top;whiteSpace=wrap;rounded=0;fillColor=#fff2cc;strokeColor=#d6b656;" vertex="1" parent="1">
          <mxGeometry x="-820" y="620" width="800" height="230" as="geometry" />
        </mxCell>
        <mxCell id="PqrCPJ23p8rGgWnf3vIa-14" style="rounded=0;orthogonalLoop=1;jettySize=auto;html=1;" edge="1" parent="1" source="PqrCPJ23p8rGgWnf3vIa-4" target="PqrCPJ23p8rGgWnf3vIa-9">
          <mxGeometry relative="1" as="geometry" />
        </mxCell>
        <mxCell id="PqrCPJ23p8rGgWnf3vIa-4" value="&lt;ul style=&quot;box-sizing: border-box; margin-top: 0px; margin-bottom: 1rem; max-width: 80%; color: rgb(34, 34, 34); font-family: &amp;quot;open sans&amp;quot;, -apple-system, &amp;quot;system-ui&amp;quot;, &amp;quot;segoe ui&amp;quot;, Roboto, &amp;quot;helvetica neue&amp;quot;, Arial, sans-serif, &amp;quot;apple color emoji&amp;quot;, &amp;quot;segoe ui emoji&amp;quot;, &amp;quot;segoe ui symbol&amp;quot;; font-size: 16px;&quot;&gt;&lt;li style=&quot;box-sizing: border-box; margin-bottom: 0.25rem;&quot;&gt;&lt;p style=&quot;box-sizing: border-box; margin-top: 0px; margin-bottom: 1rem;&quot;&gt;&lt;span&gt;The&amp;nbsp;&lt;a href=&quot;https://kubernetes.io/docs/concepts/services-networking/gateway/&quot; style=&quot;box-sizing: border-box; color: rgb(50, 108, 229); text-decoration-line: none;&quot;&gt;Gateway&lt;/a&gt;&amp;nbsp;API (or its predecessor,&amp;nbsp;&lt;a href=&quot;https://kubernetes.io/docs/concepts/services-networking/ingress/&quot; style=&quot;box-sizing: border-box; color: rgb(50, 108, 229); text-decoration-line: none;&quot;&gt;Ingress&lt;/a&gt;) allows you to make Services accessible to clients that are outside the cluster.&lt;/span&gt;&lt;/p&gt;&lt;ul style=&quot;box-sizing: border-box; margin-top: 0px; margin-bottom: 0px;&quot;&gt;&lt;li style=&quot;box-sizing: border-box; margin-bottom: 0.25rem;&quot;&gt;&lt;span&gt;A simpler, but less-configurable, mechanism for cluster ingress is available via the Service API&#39;s&amp;nbsp;&lt;a href=&quot;https://kubernetes.io/docs/concepts/services-networking/service/#loadbalancer&quot; style=&quot;box-sizing: border-box; color: rgb(50, 108, 229); text-decoration-line: none;&quot;&gt;&lt;code style=&quot;box-sizing: border-box; font-family: SFMono-Regular, Menlo, Monaco, Consolas, &amp;quot;liberation mono&amp;quot;, &amp;quot;courier new&amp;quot;, monospace; font-size: 14px; color: inherit; overflow-wrap: break-word;&quot;&gt;type: LoadBalancer&lt;/code&gt;&lt;/a&gt;, when using a supported&amp;nbsp;&lt;a class=&quot;glossary-tooltip&quot; title=&quot;&quot; data-toggle=&quot;tooltip&quot; data-placement=&quot;top&quot; href=&quot;https://kubernetes.io/docs/reference/glossary/?all=true#term-cloud-provider&quot; target=&quot;_blank&quot; aria-label=&quot;Cloud Provider&quot; data-original-title=&quot;An organization that offers a cloud computing platform.&quot; style=&quot;background-image: initial; background-position: 0px 0px; background-size: initial; background-repeat: initial; background-attachment: initial; background-origin: initial; background-clip: initial; box-sizing: border-box; color: rgb(0, 0, 0); display: inline-block; border-bottom: 1px dotted rgb(0, 0, 0); text-decoration-line: none !important;&quot;&gt;Cloud Provider&lt;/a&gt;&lt;/span&gt;&lt;/li&gt;&lt;/ul&gt;&lt;/li&gt;&lt;/ul&gt;" style="text;html=1;align=left;verticalAlign=top;whiteSpace=wrap;rounded=0;fillColor=#fff2cc;strokeColor=#d6b656;" vertex="1" parent="1">
          <mxGeometry x="-820" y="930" width="800" height="140" as="geometry" />
        </mxCell>
        <mxCell id="PqrCPJ23p8rGgWnf3vIa-15" style="rounded=0;orthogonalLoop=1;jettySize=auto;html=1;" edge="1" parent="1" source="PqrCPJ23p8rGgWnf3vIa-5" target="PqrCPJ23p8rGgWnf3vIa-10">
          <mxGeometry relative="1" as="geometry" />
        </mxCell>
        <mxCell id="PqrCPJ23p8rGgWnf3vIa-5" value="&lt;ul style=&quot;box-sizing: border-box; margin-top: 0px; margin-bottom: 1rem; max-width: 80%; color: rgb(34, 34, 34); font-family: &amp;quot;open sans&amp;quot;, -apple-system, &amp;quot;system-ui&amp;quot;, &amp;quot;segoe ui&amp;quot;, Roboto, &amp;quot;helvetica neue&amp;quot;, Arial, sans-serif, &amp;quot;apple color emoji&amp;quot;, &amp;quot;segoe ui emoji&amp;quot;, &amp;quot;segoe ui symbol&amp;quot;; font-size: 16px;&quot;&gt;&lt;li style=&quot;box-sizing: border-box; margin-bottom: 0.25rem;&quot;&gt;&lt;p style=&quot;box-sizing: border-box; margin-top: 0px; margin-bottom: 1rem;&quot;&gt;&lt;span&gt;&lt;a href=&quot;https://kubernetes.io/docs/concepts/services-networking/network-policies/&quot; style=&quot;box-sizing: border-box; color: rgb(50, 108, 229); text-decoration-line: none;&quot;&gt;NetworkPolicy&lt;/a&gt;&amp;nbsp;is a built-in Kubernetes API that allows you to control traffic between pods, or between pods and the outside world.&lt;/span&gt;&lt;/p&gt;&lt;/li&gt;&lt;/ul&gt;" style="text;html=1;align=left;verticalAlign=top;whiteSpace=wrap;rounded=0;fillColor=#fff2cc;strokeColor=#d6b656;" vertex="1" parent="1">
          <mxGeometry x="-820" y="1140" width="800" height="70" as="geometry" />
        </mxCell>
        <mxCell id="PqrCPJ23p8rGgWnf3vIa-6" value="Pod network namespace" style="rounded=1;whiteSpace=wrap;html=1;" vertex="1" parent="1">
          <mxGeometry x="90" y="60" width="160" height="80" as="geometry" />
        </mxCell>
        <mxCell id="PqrCPJ23p8rGgWnf3vIa-30" style="rounded=0;orthogonalLoop=1;jettySize=auto;html=1;" edge="1" parent="1" source="PqrCPJ23p8rGgWnf3vIa-7" target="PqrCPJ23p8rGgWnf3vIa-20">
          <mxGeometry relative="1" as="geometry" />
        </mxCell>
        <mxCell id="PqrCPJ23p8rGgWnf3vIa-7" value="Pod Network" style="rounded=1;whiteSpace=wrap;html=1;" vertex="1" parent="1">
          <mxGeometry x="90" y="365" width="160" height="80" as="geometry" />
        </mxCell>
        <mxCell id="PqrCPJ23p8rGgWnf3vIa-31" style="rounded=0;orthogonalLoop=1;jettySize=auto;html=1;" edge="1" parent="1" source="PqrCPJ23p8rGgWnf3vIa-8" target="PqrCPJ23p8rGgWnf3vIa-22">
          <mxGeometry relative="1" as="geometry" />
        </mxCell>
        <mxCell id="PqrCPJ23p8rGgWnf3vIa-8" value="Service Proxying" style="rounded=1;whiteSpace=wrap;html=1;" vertex="1" parent="1">
          <mxGeometry x="90" y="695" width="160" height="80" as="geometry" />
        </mxCell>
        <mxCell id="PqrCPJ23p8rGgWnf3vIa-32" style="rounded=0;orthogonalLoop=1;jettySize=auto;html=1;" edge="1" parent="1" source="PqrCPJ23p8rGgWnf3vIa-9" target="PqrCPJ23p8rGgWnf3vIa-26">
          <mxGeometry relative="1" as="geometry" />
        </mxCell>
        <mxCell id="PqrCPJ23p8rGgWnf3vIa-9" value="Gateway API" style="rounded=1;whiteSpace=wrap;html=1;" vertex="1" parent="1">
          <mxGeometry x="90" y="960" width="160" height="80" as="geometry" />
        </mxCell>
        <mxCell id="PqrCPJ23p8rGgWnf3vIa-33" style="rounded=0;orthogonalLoop=1;jettySize=auto;html=1;" edge="1" parent="1" source="PqrCPJ23p8rGgWnf3vIa-10" target="PqrCPJ23p8rGgWnf3vIa-28">
          <mxGeometry relative="1" as="geometry" />
        </mxCell>
        <mxCell id="PqrCPJ23p8rGgWnf3vIa-10" value="Network Policy" style="rounded=1;whiteSpace=wrap;html=1;" vertex="1" parent="1">
          <mxGeometry x="90" y="1135" width="160" height="80" as="geometry" />
        </mxCell>
        <mxCell id="PqrCPJ23p8rGgWnf3vIa-16" value="&lt;span style=&quot;color: rgb(34, 34, 34); font-family: &amp;quot;open sans&amp;quot;, -apple-system, &amp;quot;system-ui&amp;quot;, &amp;quot;segoe ui&amp;quot;, Roboto, &amp;quot;helvetica neue&amp;quot;, Arial, sans-serif, &amp;quot;apple color emoji&amp;quot;, &amp;quot;segoe ui emoji&amp;quot;, &amp;quot;segoe ui symbol&amp;quot;; font-size: 16px; font-weight: 400; text-align: left; background-color: rgb(255, 255, 255);&quot;&gt;Pod network namespace setup&lt;/span&gt;" style="swimlane;whiteSpace=wrap;html=1;collapsible=0;" vertex="1" parent="1">
          <mxGeometry x="440" y="25" width="340" height="150" as="geometry" />
        </mxCell>
        <mxCell id="PqrCPJ23p8rGgWnf3vIa-18" value="CRI" style="whiteSpace=wrap;html=1;" vertex="1" parent="PqrCPJ23p8rGgWnf3vIa-16">
          <mxGeometry x="50" y="70" width="120" height="60" as="geometry" />
        </mxCell>
        <mxCell id="PqrCPJ23p8rGgWnf3vIa-19" style="rounded=0;orthogonalLoop=1;jettySize=auto;html=1;" edge="1" parent="1" source="PqrCPJ23p8rGgWnf3vIa-6" target="PqrCPJ23p8rGgWnf3vIa-16">
          <mxGeometry relative="1" as="geometry" />
        </mxCell>
        <mxCell id="PqrCPJ23p8rGgWnf3vIa-20" value="&lt;span style=&quot;color: rgb(34, 34, 34); font-family: &amp;quot;open sans&amp;quot;, -apple-system, &amp;quot;system-ui&amp;quot;, &amp;quot;segoe ui&amp;quot;, Roboto, &amp;quot;helvetica neue&amp;quot;, Arial, sans-serif, &amp;quot;apple color emoji&amp;quot;, &amp;quot;segoe ui emoji&amp;quot;, &amp;quot;segoe ui symbol&amp;quot;; font-size: 16px; font-weight: 400; text-align: left; background-color: rgb(255, 255, 255);&quot;&gt;Pod network implementation&lt;/span&gt;" style="swimlane;whiteSpace=wrap;html=1;collapsible=0;" vertex="1" parent="1">
          <mxGeometry x="440" y="340" width="330" height="170" as="geometry" />
        </mxCell>
        <mxCell id="PqrCPJ23p8rGgWnf3vIa-21" value="CNI" style="whiteSpace=wrap;html=1;" vertex="1" parent="PqrCPJ23p8rGgWnf3vIa-20">
          <mxGeometry x="50" y="70" width="120" height="60" as="geometry" />
        </mxCell>
        <mxCell id="PqrCPJ23p8rGgWnf3vIa-22" value="&lt;span style=&quot;color: rgb(34, 34, 34); font-family: &amp;quot;open sans&amp;quot;, -apple-system, &amp;quot;system-ui&amp;quot;, &amp;quot;segoe ui&amp;quot;, Roboto, &amp;quot;helvetica neue&amp;quot;, Arial, sans-serif, &amp;quot;apple color emoji&amp;quot;, &amp;quot;segoe ui emoji&amp;quot;, &amp;quot;segoe ui symbol&amp;quot;; font-size: 16px; font-weight: 400; text-align: left; background-color: rgb(255, 255, 255);&quot;&gt;service proxying&lt;/span&gt;" style="swimlane;whiteSpace=wrap;html=1;collapsible=0;" vertex="1" parent="1">
          <mxGeometry x="440" y="670" width="330" height="170" as="geometry" />
        </mxCell>
        <mxCell id="PqrCPJ23p8rGgWnf3vIa-24" value="" style="aspect=fixed;sketch=0;html=1;dashed=0;whitespace=wrap;verticalLabelPosition=bottom;verticalAlign=top;fillColor=#2875E2;strokeColor=#ffffff;points=[[0.005,0.63,0],[0.1,0.2,0],[0.9,0.2,0],[0.5,0,0],[0.995,0.63,0],[0.72,0.99,0],[0.5,1,0],[0.28,0.99,0]];shape=mxgraph.kubernetes.icon2;kubernetesLabel=1;prIcon=k_proxy" vertex="1" parent="PqrCPJ23p8rGgWnf3vIa-22">
          <mxGeometry x="50" y="41" width="50" height="48" as="geometry" />
        </mxCell>
        <mxCell id="PqrCPJ23p8rGgWnf3vIa-25" value="provided by pod network implementations" style="whiteSpace=wrap;html=1;fillColor=#f5f5f5;fontColor=#333333;strokeColor=#666666;" vertex="1" parent="PqrCPJ23p8rGgWnf3vIa-22">
          <mxGeometry x="20" y="100" width="240" height="60" as="geometry" />
        </mxCell>
        <mxCell id="PqrCPJ23p8rGgWnf3vIa-26" value="&lt;span style=&quot;color: rgb(34, 34, 34); font-family: &amp;quot;open sans&amp;quot;, -apple-system, &amp;quot;system-ui&amp;quot;, &amp;quot;segoe ui&amp;quot;, Roboto, &amp;quot;helvetica neue&amp;quot;, Arial, sans-serif, &amp;quot;apple color emoji&amp;quot;, &amp;quot;segoe ui emoji&amp;quot;, &amp;quot;segoe ui symbol&amp;quot;; font-size: 16px; font-weight: 400; text-align: left; background-color: rgb(255, 255, 255);&quot;&gt;Gateway API&lt;/span&gt;" style="swimlane;whiteSpace=wrap;html=1;collapsible=0;" vertex="1" parent="1">
          <mxGeometry x="440" y="910" width="330" height="170" as="geometry" />
        </mxCell>
        <mxCell id="PqrCPJ23p8rGgWnf3vIa-27" value="Out-of tree implementations" style="whiteSpace=wrap;html=1;" vertex="1" parent="PqrCPJ23p8rGgWnf3vIa-26">
          <mxGeometry x="20" y="60" width="220" height="60" as="geometry" />
        </mxCell>
        <mxCell id="PqrCPJ23p8rGgWnf3vIa-28" value="&lt;span style=&quot;color: rgb(34, 34, 34); font-family: &amp;quot;open sans&amp;quot;, -apple-system, &amp;quot;system-ui&amp;quot;, &amp;quot;segoe ui&amp;quot;, Roboto, &amp;quot;helvetica neue&amp;quot;, Arial, sans-serif, &amp;quot;apple color emoji&amp;quot;, &amp;quot;segoe ui emoji&amp;quot;, &amp;quot;segoe ui symbol&amp;quot;; font-size: 16px; font-weight: 400; text-align: left; background-color: rgb(255, 255, 255);&quot;&gt;Network Policy&lt;/span&gt;" style="swimlane;whiteSpace=wrap;html=1;collapsible=0;" vertex="1" parent="1">
          <mxGeometry x="440" y="1120" width="330" height="170" as="geometry" />
        </mxCell>
        <mxCell id="PqrCPJ23p8rGgWnf3vIa-29" value="&lt;span style=&quot;color: rgb(34, 34, 34); font-family: &amp;quot;open sans&amp;quot;, -apple-system, &amp;quot;system-ui&amp;quot;, &amp;quot;segoe ui&amp;quot;, Roboto, &amp;quot;helvetica neue&amp;quot;, Arial, sans-serif, &amp;quot;apple color emoji&amp;quot;, &amp;quot;segoe ui emoji&amp;quot;, &amp;quot;segoe ui symbol&amp;quot;; font-size: 16px; text-align: left; background-color: rgb(255, 255, 255);&quot;&gt;pod network implementation&lt;/span&gt;" style="whiteSpace=wrap;html=1;" vertex="1" parent="PqrCPJ23p8rGgWnf3vIa-28">
          <mxGeometry x="20" y="60" width="220" height="60" as="geometry" />
        </mxCell>
      </root>
    </mxGraphModel>
  </diagram>
  <diagram id="qOIcQPJzHsrAUwce5D0B" name="Page-2">
    <mxGraphModel dx="2500" dy="1457" grid="1" gridSize="10" guides="1" tooltips="1" connect="1" arrows="1" fold="1" page="1" pageScale="1" pageWidth="850" pageHeight="1100" math="0" shadow="0">
      <root>
        <mxCell id="0" />
        <mxCell id="1" parent="0" />
        <mxCell id="cQPtRNtbgHZAJ40PuvNY-1" value="" style="shape=image;verticalLabelPosition=bottom;labelBackgroundColor=default;verticalAlign=top;aspect=fixed;imageAspect=0;image=https://miro.medium.com/v2/resize:fit:1400/1*tMZfRpG4tzSx5yjz-CIMaw.png;" vertex="1" parent="1">
          <mxGeometry x="200" y="550" width="588.39" height="580" as="geometry" />
        </mxCell>
      </root>
    </mxGraphModel>
  </diagram>
</mxfile>
